<svg xmlns="http://www.w3.org/2000/svg" viewBox="0 0 250 250" width="100%" height="100%">
    <rect width="400" height="400" fill="transparent"/>

    <g transform="translate(-74,-30) scale(1,1)">
        <path d="M 120 70 L 150 70 L 150 100 L 120 100 Z M 250 70 L 280 70 L 280 100 L 250 100 Z" fill="#E46C58" />
        <path d="M 100 90 L 100 240 L 300 240 L 300 90 L 270 90 L 270 210 L 130 210 L 130 90 Z" fill="#1AA8B8" />

        <path d="M 170 120 L 230 120 L 230 150 L 260 150 L 260 180 L 140 180 L 140 150 L 170 150 Z" fill="#6A44D8" />

        <circle cx="200" cy="165" r="15" fill="#E46C58" />

        <rect x="195" y="110" width="10" height="70" fill="#E46C58" />
    </g>

</svg>